<svg xmlns="http://www.w3.org/2000/svg" enable-background="new 0 0 60 60" viewBox="0 0 60 60"><rect width="2.937" height="4.255" x="28.534" y="29.495" fill="#3b4651"/><path fill="#3b4651" d="M46.7450905,18.9560928h-8.1346893v-3.7310152c0-1.3886614-1.1297302-2.5183935-2.5176201-2.5183935
			H23.9107838c-1.3878899,0-2.517622,1.1297321-2.517622,2.5183935v3.7310152h-8.1382036
			c-1.6413774,0-2.9828863,1.3336105-2.9828863,2.974987v3.0804653c4.7545948,2.3910484,11.2681828,5.1704903,16.6834412,5.6935978
			v-1.9995708c0-0.4361725,0.3529453-0.7891178,0.7891159-0.7891178h4.5150757c0.4361725,0,0.7891159,0.3529453,0.7891159,0.7891178
			v1.9973564c5.6939354-0.5579796,12.6702347-3.6760616,16.6791077-5.6900826v-3.0817661
			C49.7279282,20.2897034,48.3943176,18.9560928,46.7450905,18.9560928z M22.9713955,15.2250776
			c0-0.5186291,0.4215317-0.9401588,0.9393883-0.9401588h12.1819973c0.5178566,0,0.9393883,0.4215298,0.9393883,0.9401588v3.7290411
			H22.9713955V15.2250776z"/><path fill="#2b79c2" d="M33.0488205 34.5391808c0 .4361725-.3529434.7891159-.7891159.7891159h-4.5150757c-.4361706 0-.7891159-.3529434-.7891159-.7891159v-2.2500725c-2.4011631-.2164459-4.9936314-.8491287-7.5621166-1.7013893v16.7055969H40.610939V30.5876236c-2.5682449.852211-5.1606636 1.4848938-7.5621185 1.7013893V34.5391808zM10.2720718 44.3183289c0 1.6413765 1.3415089 2.974987 2.9828863 2.974987h4.5602045v-17.257988c-2.6825838-.980423-5.2822781-2.1468086-7.5430908-3.2601166V44.3183289zM42.1891708 47.2933159h4.5559196c1.6492271 0 2.9828377-1.3336105 2.9828377-2.974987V26.7770405c-2.2596092 1.1127319-4.857666 2.2783451-7.5387573 3.2581921V47.2933159z"/></svg>