<?xml version="1.0" encoding="utf-8"?>
<!-- Svg Vector Icons : http://www.onlinewebfonts.com/icon -->
<!DOCTYPE svg PUBLIC "-//W3C//DTD SVG 1.1//EN" "http://www.w3.org/Graphics/SVG/1.1/DTD/svg11.dtd">
<svg version="1.1" xmlns="http://www.w3.org/2000/svg" xmlns:xlink="http://www.w3.org/1999/xlink" x="0px" y="0px" viewBox="0 0 1000 1000" enable-background="new 0 0 1000 1000" xml:space="preserve">
<metadata> Svg Vector Icons : http://www.onlinewebfonts.com/icon </metadata>
<g><path d="M573.6,10.3c112.1-0.6,224.2-0.1,336.3-0.3c16.9-0.4,34.1,3.5,47.9,13.4c20.3,13.8,32.5,38,32.1,62.5c0.1,111.7,0,223.5-0.1,335.2c-0.2,23.6-3,49.9-21,67.2C810.9,646.5,652.6,804.6,494.5,962.8c-8,8.1-16,16.6-26.6,21.3c-20.9,10.2-47.4,6.9-65.2-8c-8.6-7.4-16.2-15.8-24.3-23.7C265.1,839,151.6,725.6,38.2,612.2c-8.8-8.8-18.4-17.5-23.2-29.3c-10.3-23-4.5-51.8,13.9-69.1C189.8,353,350.7,192.1,511.6,31.3C527.6,14.7,551.6,10.7,573.6,10.3z M561.2,53.9c-8,0.7-16,3.4-21.5,9.5C381.9,221.1,224.2,378.9,66.4,536.6c-6,6.1-14,12.3-13.8,21.8c-0.3,8.9,6.9,15,12.6,20.7c120.4,120.3,240.6,240.6,361,360.9c4.6,4.7,10.9,8.3,17.7,7.2c8.4-0.9,13.8-8,19.4-13.5c157.8-157.8,315.5-315.6,473.3-473.3c13.3-12.8,9.5-33.1,10.7-49.8c0-104.7,0-209.5,0-314.2c0-9.6,0.6-20-4.8-28.4c-5.9-9.8-17.1-15.5-28.4-15.2c-102-0.2-204,0-305.9-0.1C592.5,52.8,576.8,52.3,561.2,53.9z M779.8,118.7c20-4.4,41.5-1.4,59.4,8.6c23.7,12.9,40.6,37.7,43.5,64.7c2.8,23.3-4.6,47.6-20.1,65.4c-14.2,16.7-35.2,27.4-57,29.2c-24.2,2.2-49.1-6.6-66.5-23.6c-19.3-18.4-29-46.3-25.2-72.8C718.2,155.7,745.8,125.9,779.8,118.7z M790.1,160.2c-16.6,3.2-30.6,17-33.5,33.8c-3.1,15.4,3.3,32.2,15.9,41.6c12.7,9.8,31,11.4,45.2,3.9c12.9-6.5,21.9-20.1,22.8-34.6c1.1-13.6-5-27.5-15.6-36.1C815.3,161.1,802.2,157.7,790.1,160.2z"/></g>
</svg>