<?xml version="1.0"?>
<svg version="1.1" id="Layer_1" xmlns="http://www.w3.org/2000/svg" x="0" y="0" viewBox="0 0 100 100" xml:space="preserve"><path d="M21.3 31.8c0 11.9.5 23.9 5.6 33 5.3 9.4 15.6 16.2 23 18.2 7.2-2.1 17.3-9.1 22.5-18.3 5.2-9.1 6-21.1 6.1-32.9-12.4-1.3-23.9-9.3-28.6-13-4.6 3.8-16.2 11.7-28.6 13z" fill="#f4e6c8"/><path d="M52.2 12L50 10l-2.2 2c-.2.1-15.3 13.2-29.8 13.2h-3.4v3.4c0 13.1 0 28 6.4 39.5 6.5 11.5 19.1 19.6 28.3 21.7l.8.2.8-.2c8.8-2.2 21.1-10.4 27.5-21.7 6.5-11.4 7.1-25.7 7.1-39.4v-3.4H82C67.5 25.2 52.4 12.2 52.2 12zm20.3 52.7C67.2 73.9 57.1 80.9 49.9 83c-7.4-2-17.8-8.8-23-18.2-5.1-9.1-5.5-21.1-5.6-33 12.4-1.3 23.9-9.3 28.7-13 4.7 3.7 16.3 11.6 28.6 13-.1 11.8-.9 23.8-6.1 32.9z" fill="#c33837"/><path d="M41.2 52c1.1 0 2-.9 2-2v-5.4c.1-3.9 3.1-7.1 6.8-7.1 3.7 0 6.7 3.2 6.8 7.1V50c0 1.1.9 2 2 2s2-.9 2-2v-5.9c-.3-6-5.1-10.8-10.8-10.8s-10.5 4.8-10.8 10.8V50c0 1.1.9 2 2 2z" fill="#e15c64"/><path d="M59.3 48.1H38.2V63c0 2.1 1.7 3.8 3.8 3.8h16.1c2.1 0 3.8-1.7 3.8-3.8V48.1h-2.6z" fill="#e15c64"/><path d="M50 52.6c-1.4 0-2.6 1.2-2.6 2.6 0 1 .6 1.9 1.5 2.4l-.1 3.6h2.4l-.1-3.6c.9-.4 1.5-1.3 1.5-2.4 0-1.4-1.2-2.6-2.6-2.6z" fill="#f3e4c7"/><metadata xmlns:d="https://loading.io/stock/"><d:name>shield</d:name><d:tags>guard,lock,security,protect,defense,anti virus,shield,web application</d:tags><d:license>pro</d:license><d:slug>y30n3k</d:slug></metadata></svg>